<svg width="500" height="500" viewBox="0 0 500 500" fill="none" xmlns="http://www.w3.org/2000/svg">
<g clip-path="url(#clip0_169_2)">
<circle cx="250" cy="250" r="250" fill="black"/>
<path d="M413.293 108.989L357.951 141.147C329.958 114.039 291.835 97.3614 249.831 97.3614C163.899 97.3614 94.2389 167.161 94.2389 253.264H32C32 132.72 129.526 35 249.831 35C314.937 35 373.377 63.6201 413.293 108.989ZM436.29 140.352C455.465 172.074 466.803 209.083 467.617 248.681C467.648 250.205 467.661 251.733 467.661 253.264H405.422C405.414 251.68 405.406 250.493 405.389 249.704C404.845 225.399 398.741 202.467 388.315 182.129L436.29 140.352ZM282.333 256.076C284.021 270.454 278.288 285.287 265.774 294.399C247.306 307.843 221.464 303.74 208.047 285.237C194.63 266.734 198.715 240.834 217.183 227.39C229.698 218.279 245.549 217.396 258.664 223.451L420.044 120.879C423.686 118.73 428.299 119.743 430.725 123.089C430.882 123.305 431.013 123.512 431.151 123.747C433.173 127.155 432.406 131.455 429.539 133.979L282.333 256.076Z" fill="white"/>
<path d="M86.3681 390.011L141.71 357.853C169.704 384.961 207.826 401.639 249.831 401.639C335.763 401.639 405.422 331.839 405.422 245.736H467.661C467.661 366.28 370.135 464 249.831 464C184.724 464 126.285 435.38 86.3681 390.011ZM63.3714 358.648C44.1966 326.926 32.8588 289.917 32.0448 250.319C32.0136 248.795 32 247.267 32 245.736H94.239C94.2477 247.32 94.2549 248.507 94.2725 249.296C94.816 273.601 100.921 296.533 111.347 316.871L63.3714 358.648ZM217.329 242.924C215.64 228.546 221.374 213.713 233.887 204.601C252.355 191.157 278.198 195.26 291.614 213.763C305.031 232.266 300.946 258.166 282.478 271.61C269.963 280.721 254.112 281.604 240.997 275.549L79.6169 378.121C75.9757 380.27 71.362 379.257 68.9358 375.911C68.7792 375.695 68.648 375.488 68.5104 375.253C66.4885 371.845 67.2553 367.545 70.1226 365.021L217.329 242.924Z" fill="white"/>
<circle cx="246.5" cy="249.5" r="63.5" fill="white"/>
<path d="M258.029 204V204.005H258.024C257.27 204.005 256.562 204.307 256.043 204.829V204.834C255.914 204.95 255.798 205.09 255.692 205.239L219.516 256.629C218.914 257.486 218.831 258.608 219.308 259.544C219.789 260.48 220.742 261.067 221.783 261.076L240.341 261.183L233.228 291.535C232.923 292.839 233.571 294.18 234.778 294.739C235.158 294.916 235.556 295 235.949 295C236.819 295 237.671 294.59 238.212 293.845L274.458 244.056C275.083 243.199 275.175 242.063 274.694 241.113C274.217 240.167 273.255 239.576 272.2 239.576H272.19L254.128 239.623V239.627L260.774 207.389C261.088 205.866 260.116 204.376 258.603 204.06C258.409 204.018 258.219 204 258.029 204Z" fill="black"/>
</g>
<defs>
<clipPath id="clip0_169_2">
<rect width="500" height="500" fill="white"/>
</clipPath>
</defs>
</svg>
